<svg class="main-svg" xmlns="http://www.w3.org/2000/svg" xmlns:xlink="http://www.w3.org/1999/xlink" width="700" height="450" style="" viewBox="0 0 700 450"><rect x="0" y="0" width="700" height="450" style="fill: rgb(255, 255, 255); fill-opacity: 1;"/><defs id="defs-7d8371"><g class="clips"><clipPath id="clip7d8371xyplot" class="plotclip"><rect width="540" height="270"/></clipPath><clipPath class="axesclip" id="clip7d8371x"><rect x="80" y="0" width="540" height="450"/></clipPath><clipPath class="axesclip" id="clip7d8371y"><rect x="0" y="100" width="700" height="270"/></clipPath><clipPath class="axesclip" id="clip7d8371xy"><rect x="80" y="100" width="540" height="270"/></clipPath></g><g class="gradients"/><g class="patterns"/></defs><g class="bglayer"/><g class="layer-below"><g class="imagelayer"/><g class="shapelayer"/></g><g class="cartesianlayer"><g class="subplot xy"><g class="layer-subplot"><g class="shapelayer"/><g class="imagelayer"/></g><g class="minor-gridlayer"><g class="x"/><g class="y"/></g><g class="gridlayer"><g class="x"><path class="xgrid crisp" transform="translate(188.11,0)" d="M0,100v270" style="stroke: rgb(238, 238, 238); stroke-opacity: 1; stroke-width: 1px;"/><path class="xgrid crisp" transform="translate(296.22,0)" d="M0,100v270" style="stroke: rgb(238, 238, 238); stroke-opacity: 1; stroke-width: 1px;"/><path class="xgrid crisp" transform="translate(404.32,0)" d="M0,100v270" style="stroke: rgb(238, 238, 238); stroke-opacity: 1; stroke-width: 1px;"/><path class="xgrid crisp" transform="translate(512.4300000000001,0)" d="M0,100v270" style="stroke: rgb(238, 238, 238); stroke-opacity: 1; stroke-width: 1px;"/></g><g class="y"><path class="ygrid crisp" transform="translate(0,282.9)" d="M80,0h540" style="stroke: rgb(238, 238, 238); stroke-opacity: 1; stroke-width: 1px;"/><path class="ygrid crisp" transform="translate(0,195.81)" d="M80,0h540" style="stroke: rgb(238, 238, 238); stroke-opacity: 1; stroke-width: 1px;"/><path class="ygrid crisp" transform="translate(0,108.71000000000001)" d="M80,0h540" style="stroke: rgb(238, 238, 238); stroke-opacity: 1; stroke-width: 1px;"/></g></g><g class="zerolinelayer"/><path class="xlines-below"/><path class="ylines-below"/><g class="overlines-below"/><g class="xaxislayer-below"/><g class="yaxislayer-below"/><g class="overaxes-below"/><g class="plot" transform="translate(80,100)" clip-path="url(#clip7d8371xyplot)"><g class="scatterlayer mlayer"><g class="trace scatter trace487431" style="stroke-miterlimit: 2; opacity: 1;"><g class="fills"/><g class="errorbars"/><g class="lines"><path class="js-line" d="M0,-4033.04L4.32,-125.99L4.86,-52.66L6.49,-7.93L7.03,-1.64L10.27,25.35L10.81,28.9L15.14,50.81L15.68,52.05L18.38,61.87L18.92,63.74L22.7,75.09L23.24,76.43L29.19,89.92L29.73,90.31L33.51,100.36L34.05,101.33L34.59,101.5L35.14,102.54L37.3,108.24L37.84,108.75L40,112.2L40.54,114.38L42.16,116.37L42.7,118.75L43.24,119.1L43.78,121.15L45.41,123.36L45.95,124.51L48.65,130.25L49.19,130.92L55.14,141.92L55.68,144.14L56.22,144.42L56.76,145.89L65.41,163.47L65.95,165.3L69.19,171.47L69.73,173.17L76.76,186.45L77.3,186.62L79.46,190.81L80,191.34L81.62,193.59L82.16,193.04L82.7,194.2L83.24,192.92L83.78,195.24L84.32,193.71L84.86,195.62L85.41,194.43L85.95,197.17L86.49,195.94L87.03,196.88L87.57,194.03L88.65,198.06L89.19,198.38L89.73,199.09L90.27,197.18L91.35,199.41L91.89,200.42L92.43,200L92.97,200.81L94.05,200.95L94.59,196.63L95.14,200.87L95.68,200.44L96.22,201.22L96.76,201.86L97.3,199.95L97.84,202.73L98.38,202.13L98.92,202.55L99.46,201.79L100,202.51L100.54,199.57L101.08,205.56L102.16,206.46L102.7,206.02L104.32,206.77L104.86,207.12L111.89,208.05L112.43,207.52L113.51,208.23L114.05,208.03L115.68,210.3L116.22,209.89L118.38,210.23L118.92,211.02L121.08,211.12L121.62,210.83L122.7,211.17L123.24,211.57L124.86,211.48L125.41,211.84L126.49,211.5L127.03,211.62L130.27,211.76L130.81,211.67L131.35,211.35L131.89,211.99L136.76,211.82L137.3,211.85L137.84,211.5L138.38,212.25L142.16,211.74L142.7,211.88L144.32,211.76L144.86,212.03L146.49,212L147.03,211.82L149.73,212.31L150.27,212.07L151.35,211.56L151.89,212.03L160,211.54L160.54,212.18L162.16,211.74L162.7,212.16L164.32,211.88L164.86,212.29L166.49,211.85L167.03,212.04L169.19,212.1L169.73,211.97L171.35,212.14L171.89,211.92L178.92,211.84L179.46,212.21L180.54,211.88L181.08,212.1L182.7,211.84L183.24,212.59L184.32,211.62L184.86,212.44L187.03,211.83L187.57,211.69L188.65,212.21L189.19,212.06L190.81,211.5L191.35,212.1L192.97,211.48L193.51,211.97L197.3,211.97L197.84,211.98L200,211.5L200.54,212.13L201.62,211.99L202.16,211.6L205.41,212.4L205.95,211.81L208.11,211.96L208.65,211.94L214.59,212.1L215.14,212.51L215.68,211.59L216.22,211.96L216.76,212.42L220.54,211.74L221.08,212.16L224.32,211.92L224.86,212.25L229.73,211.96L230.27,212.1L231.89,212.02L232.43,211.73L233.51,212.25L234.05,211.69L234.59,212.29L235.14,211.68L237.84,212.44L238.38,211.58L241.08,211.79L241.62,211.78L242.16,212.42L242.7,211.92L243.24,211.98L246.49,211.6L247.03,211.89L248.11,211.99L248.65,211.71L250.27,211.98L250.81,212L251.89,212.04L252.43,212.11L255.14,211.68L255.68,211.56L256.76,211.98L257.3,211.84L258.92,212.01L259.46,211.97L260.54,211.59L261.08,212.3L262.16,211.83L262.7,211.63L263.78,211.75L264.32,212.09L267.57,211.66L268.11,211.95L275.68,211.83L276.22,212.18L277.84,211.54L278.38,211.83L281.62,212.21L282.16,211.46L283.78,212.02L284.32,212.03L285.41,211.85L285.95,211.67L288.11,211.76L288.65,211.73L290.81,211.93L291.35,211.61L292.43,212.36L292.97,211.99L294.59,211.53L295.14,212.3L295.68,211.61L296.22,212.31L298.38,212.01L298.92,212.22L301.62,212.12L302.16,212.29L305.95,211.91L306.49,211.97L308.11,211.61L308.65,212.16L309.73,211.81L310.27,212.47L311.35,212.1L311.89,211.76L313.51,212.2L314.05,211.74L322.7,212.03L323.24,211.59L326.49,212.1L327.03,211.81L328.65,211.81L329.19,212.05L331.35,212.02L331.89,211.97L334.05,211.65L334.59,212.1L335.68,211.83L336.22,211.89L339.46,212.08L340,211.36L341.08,211.91L341.62,212.1L343.78,212.15L344.32,211.79L344.86,211.52L345.41,212.48L346.49,211.75L347.03,212.2L349.19,211.91L349.73,211.81L350.81,211.84L351.35,211.91L352.97,212.2L353.51,211.91L362.7,212.11L363.24,211.76L364.86,212L365.41,212.12L366.49,212.01L367.03,212.27L368.11,211.8L368.65,211.94L373.51,212.05L374.05,211.83L375.68,211.57L376.22,211.9L377.3,211.77L377.84,211.87L378.38,211.4L378.92,212.24L381.62,211.65L382.16,211.93L384.32,212.12L384.86,212.21L386.49,211.4L387.03,212.4L388.11,211.88L388.65,212.34L389.73,211.37L390.27,211.95L392.43,211.64L392.97,212.16L399.46,212.21L400,211.29L401.08,211.91L401.62,211.75L404.32,211.87L404.86,211.48L405.95,211.97L406.49,211.69L409.73,212.14L410.27,211.63L411.89,211.76L412.43,211.69L413.51,211.81L414.05,211.93L415.14,211.88L415.68,212L418.38,212.43L418.92,211.71L420,211.78L420.54,211.96L421.62,212.05L422.16,211.99L423.78,211.89L424.32,211.83L430.81,212.34L431.35,211.49L432.43,211.52L432.97,211.61L434.05,211.88L434.59,211.51L436.76,212.25L437.3,211.8L439.46,212.1L440,212.02L442.16,211.93L442.7,212.31L445.95,211.92L446.49,212.22L450.81,212.1L451.35,212.27L452.43,212.05L452.97,212.07L456.76,211.97L457.3,211.62L458.38,212.09L458.92,211.56L461.08,212.2L461.62,211.81L463.24,212.33L463.78,211.97L465.95,211.88L466.49,212.46L467.57,211.72L468.11,211.82L471.35,211.98L471.89,211.58L472.97,211.49L473.51,212.51L474.59,211.55L475.14,212.11L478.38,211.59L478.92,212.12L479.46,211.46L480,211.95L480.54,212.24L482.7,211.69L483.24,211.95L484.86,211.94L485.41,211.91L488.65,211.72L489.19,211.78L490.27,211.85L490.81,212.12L493.51,211.97L494.05,212.18L495.68,211.64L496.22,211.73L497.84,212.23L498.38,211.7L501.62,211.98L502.16,211.94L504.32,211.83L504.86,212.24L510.27,211.93L510.81,212.28L511.35,211.64L511.89,212.14L512.43,212.43L512.97,211.82L513.51,212.35L515.14,212.15L515.68,211.81L516.76,211.93L517.3,211.93L524.32,211.89L524.86,212.01L530.27,212.12L530.81,212.51L531.89,211.5L532.43,212.29L532.97,211.89L533.51,212.43L534.59,212.08L535.14,212.05L537.84,211.7L538.38,211.4L538.92,212.32L539.46,211.89L540,212.12" style="vector-effect: none; fill: none; stroke: rgb(156, 39, 176); stroke-opacity: 1; stroke-width: 2px; opacity: 1;"/></g><g class="points"/><g class="text"/></g><g class="trace scatter traceff7bd3" style="stroke-miterlimit: 2; opacity: 1;"><g class="fills"/><g class="errorbars"/><g class="lines"><path class="js-line" d="M0,-5400L4.514043927878979,-5400L4.86,-210.76L5.41,-94.44L7.03,37.58L7.57,55.4L9.73,98.76L10.27,105.66L12.97,128.02L13.51,131.08L17.3,147.54L17.84,149.46L22.7,163.99L23.24,165.29L28.11,174.91L28.65,175.77L34.05,182.91L34.59,183.51L42.16,190.51L42.7,190.94L54.05,198.63L54.59,198.95L71.89,208.17L72.43,208.43L96.22,219.09L96.76,219.32L122.16,228.87L122.7,229.05L136.22,232.99L136.76,232.71L137.84,233.73L138.38,233.02L139.46,231.94L140,232.96L141.08,225.14L141.62,230.51L142.7,232.48L143.24,232.65L143.78,232.83L144.32,232.04L148.65,234.15L149.19,234.23L164.86,235.54L165.41,235.57L200,237.39L200.54,237.42L328.11,241.47L328.65,241.48L540,245.44" style="vector-effect: none; fill: none; stroke: rgb(33, 150, 243); stroke-opacity: 1; stroke-width: 2px; opacity: 1;"/></g><g class="points"/><g class="text"/></g><g class="trace scatter traceddb6a3" style="stroke-miterlimit: 2; opacity: 1;"><g class="fills"/><g class="errorbars"/><g class="lines"><path class="js-line" d="M0,-3974.77L3.78,-4090L15.14,-1428.4L15.68,-1238.87L22.16,-99.51L22.7,-82.87L24.86,27.63L25.41,43.72L28.65,119.24L29.19,124.34L31.35,148.48L31.89,154.93L33.51,167.94L34.05,174.96L36.22,185.35L36.76,190.94L37.3,190.03L37.84,192.79L38.38,195.72L38.92,189.69L39.46,188.65L40,194.67L40.54,176.35L41.08,190.46L42.16,206.76L42.7,209.38L43.78,211.66L44.32,211.62L44.86,211.78L45.41,212.76L49.19,217.17L49.73,217.29L53.51,219.71L54.05,220.36L57.84,222.21L58.38,221.71L59.46,223.16L60,223.01L61.08,224.66L61.62,224.39L64.32,226.05L64.86,225.82L65.41,227.35L65.95,226.89L66.49,227.3L67.03,227.14L67.57,228.07L68.65,227.89L69.19,227.96L70.27,229.3L70.81,228.89L72.97,229.85L73.51,229.69L74.59,230.48L75.14,230.94L76.76,231.25L77.3,231.52L78.92,231.83L79.46,232.55L83.24,233.13L83.78,233.45L95.14,236.53L95.68,237.35L97.3,237.14L97.84,237.56L99.46,237.37L100,238.49L101.62,237.86L102.16,239.25L103.24,238.73L103.78,238.64L105.95,239.74L106.49,239.16L107.57,239.22L108.11,239.32L109.19,240.19L109.73,239.91L111.35,240.57L111.89,239.76L113.51,241.4L114.05,241.04L118.38,241.71L118.92,242.15L120,242.55L120.54,241.62L121.08,242.5L121.62,241.95L122.16,241.51L123.24,242.46L123.78,242.17L127.03,242.93L127.57,242.8L134.05,242.91L134.59,242.74L136.76,242.86L137.3,243.11L141.62,242.78L142.16,243.41L144.32,243.04L144.86,243.28L145.95,242.8L146.49,243.2L147.57,242.8L148.11,243.32L149.73,243.07L150.27,242.98L159.46,243.27L160,242.64L161.08,242.94L161.62,242.88L162.7,242.6L163.24,243.46L164.86,243.05L165.41,243.36L167.03,243.02L167.57,242.43L169.19,243.15L169.73,242.65L170.27,243.34L170.81,242.7L172.43,242.79L172.97,242.74L174.05,243.01L174.59,242.76L176.76,242.92L177.3,243.43L182.7,242.98L183.24,243.54L184.32,242.97L184.86,242.77L185.95,243.37L186.49,242.96L187.03,243.22L187.57,242.46L188.11,242.49L188.65,243.32L191.35,242.91L191.89,243.24L192.97,243.26L193.51,243.18L201.08,242.75L201.62,242.52L203.24,243.19L203.78,242.93L215.68,243.28L216.22,242.91L216.76,242.53L217.3,243.07L218.38,243.06L218.92,242.63L220,243.45L220.54,243.21L224.32,242.35L224.86,243.17L229.19,243.13L229.73,242.54L230.81,242.97L231.35,242.7L235.14,243.49L235.68,242.82L236.76,242.79L237.3,242.56L239.46,243.15L240,242.88L241.62,242.71L242.16,243.34L247.03,242.89L247.57,243.32L249.19,243.12L249.73,242.94L251.89,242.92L252.43,242.98L253.51,242.83L254.05,242.84L256.22,243.58L256.76,243.27L258.92,243.13L259.46,242.41L262.7,243.22L263.24,242.59L265.41,243.01L265.95,242.93L266.49,243.31L267.03,242.63L268.11,243.37L268.65,243.1L269.19,242.32L269.73,242.71L270.27,242.61L272.97,243.51L273.51,242.72L277.3,243.26L277.84,243.24L278.38,242.62L278.92,243.26L280,243.22L280.54,242.98L283.24,242.95L283.78,242.87L284.32,242.43L284.86,243.13L287.03,242.94L287.57,243.42L290.27,242.49L290.81,243.24L292.97,242.61L293.51,243.28L295.68,243.11L296.22,243.07L300,242.87L300.54,243.15L304.86,242.78L305.41,243.32L306.49,243.11L307.03,242.87L309.19,243.43L309.73,242.99L319.46,242.84L320,242.59L322.16,243.58L322.7,243.23L324.86,243.02L325.41,243.36L327.03,242.39L327.57,243.09L330.81,242.67L331.35,243.25L335.14,242.97L335.68,243.73L336.76,243.15L337.3,243.42L338.92,242.86L339.46,243.69L340,242.38L340.54,242.81L341.08,242.96L343.24,243.27L343.78,242.43L345.95,243.24L346.49,242.79L350.81,242.95L351.35,242.37L352.43,242.97L352.97,242.86L355.14,242.99L355.68,243.32L356.22,242.31L356.76,243.22L358.92,242.64L359.46,243.12L360,242.62L360.54,243.2L362.16,242.81L362.7,243.18L363.78,242.76L364.32,242.95L368.65,243.39L369.19,242.9L369.73,242.53L370.27,243.13L375.14,242.79L375.68,242.69L377.3,243.22L377.84,243.22L380.54,242.95L381.08,243.22L382.16,243.23L382.7,243.09L385.95,243.22L386.49,243.6L387.57,242.59L388.11,243.44L389.73,242.85L390.27,242.99L391.35,242.96L391.89,243L392.43,242.79L392.97,243.78L394.05,243.15L394.59,242.96L396.22,243.4L396.76,242.58L398.38,243.06L398.92,243.07L399.46,242.44L400,242.97L401.62,242.94L402.16,242.73L403.24,243.6L403.78,242.87L405.95,243L406.49,242.82L410.27,242.72L410.81,242.59L411.89,243.41L412.43,243.07L413.51,243.15L414.05,242.47L416.22,243.26L416.76,243.16L425.41,243.38L425.95,242.69L427.03,243.06L427.57,243.18L430.27,242.72L430.81,243.12L431.89,242.86L432.43,243.37L433.51,243.18L434.05,242.98L435.68,243.07L436.22,242.66L437.84,243.52L438.38,242.95L440.54,242.46L441.08,243.4L442.16,242.72L442.7,243.43L443.24,242.58L443.78,243.06L444.32,243.03L445.41,242.52L445.95,243.36L447.03,243.57L447.57,242.92L449.19,243.27L449.73,242.88L453.51,242.79L454.05,243.07L455.68,242.84L456.22,242.78L457.84,243.19L458.38,242.93L459.46,243.59L460,242.92L461.62,243.26L462.16,242.92L463.24,243.48L463.78,243.16L464.32,242.74L464.86,243.54L467.57,242.94L468.11,243.36L469.19,242.85L469.73,243.19L470.27,243.44L470.81,242.86L475.14,242.95L475.68,242.78L480.54,243.1L481.08,242.78L483.24,243.04L483.78,242.96L487.03,243.24L487.57,243.06L489.19,243.05L489.73,243.26L496.22,243.2L496.76,242.58L498.38,243L498.92,242.7L500,243.09L500.54,242.69L502.7,243.3L503.24,242.81L504.32,243.32L504.86,242.63L505.95,243.22L506.49,243.08L511.89,242.8L512.43,243.19L516.22,243.38L516.76,242.67L517.3,243.58L517.84,243.25L518.38,243.23L520.54,243.35L521.08,242.92L522.7,243.08L523.24,242.74L526.49,242.95L527.03,242.96L529.19,243.27L529.73,243.33L531.89,243.09L532.43,242.92L540,243.09" style="vector-effect: none; fill: none; stroke: rgb(0, 150, 136); stroke-opacity: 1; stroke-width: 2px; opacity: 1;"/></g><g class="points"/><g class="text"/></g></g></g><g class="overplot"/><path class="xlines-above crisp" d="M79,370.5H620" style="fill: none; stroke-width: 1px; stroke: rgb(68, 68, 68); stroke-opacity: 1;"/><path class="ylines-above crisp" d="M79.5,100V370" style="fill: none; stroke-width: 1px; stroke: rgb(68, 68, 68); stroke-opacity: 1;"/><g class="overlines-above"/><g class="xaxislayer-above"><path class="xtick ticks crisp" d="M0,371v5" transform="translate(80,0)" style="stroke: rgb(68, 68, 68); stroke-opacity: 1; stroke-width: 1px;"/><path class="xtick ticks crisp" d="M0,371v5" transform="translate(188.11,0)" style="stroke: rgb(68, 68, 68); stroke-opacity: 1; stroke-width: 1px;"/><path class="xtick ticks crisp" d="M0,371v5" transform="translate(296.22,0)" style="stroke: rgb(68, 68, 68); stroke-opacity: 1; stroke-width: 1px;"/><path class="xtick ticks crisp" d="M0,371v5" transform="translate(404.32,0)" style="stroke: rgb(68, 68, 68); stroke-opacity: 1; stroke-width: 1px;"/><path class="xtick ticks crisp" d="M0,371v5" transform="translate(512.4300000000001,0)" style="stroke: rgb(68, 68, 68); stroke-opacity: 1; stroke-width: 1px;"/><g class="xtick"><text text-anchor="middle" x="0" y="390.4" transform="translate(80,0)" style="font-family: 'Open Sans', verdana, arial, sans-serif; font-size: 12px; fill: rgb(68, 68, 68); fill-opacity: 1; white-space: pre; opacity: 1;">0</text></g><g class="xtick"><text text-anchor="middle" x="0" y="390.4" style="font-family: 'Open Sans', verdana, arial, sans-serif; font-size: 12px; fill: rgb(68, 68, 68); fill-opacity: 1; white-space: pre; opacity: 1;" transform="translate(188.11,0)">200</text></g><g class="xtick"><text text-anchor="middle" x="0" y="390.4" style="font-family: 'Open Sans', verdana, arial, sans-serif; font-size: 12px; fill: rgb(68, 68, 68); fill-opacity: 1; white-space: pre; opacity: 1;" transform="translate(296.22,0)">400</text></g><g class="xtick"><text text-anchor="middle" x="0" y="390.4" style="font-family: 'Open Sans', verdana, arial, sans-serif; font-size: 12px; fill: rgb(68, 68, 68); fill-opacity: 1; white-space: pre; opacity: 1;" transform="translate(404.32,0)">600</text></g><g class="xtick"><text text-anchor="middle" x="0" y="390.4" style="font-family: 'Open Sans', verdana, arial, sans-serif; font-size: 12px; fill: rgb(68, 68, 68); fill-opacity: 1; white-space: pre; opacity: 1;" transform="translate(512.4300000000001,0)">800</text></g></g><g class="yaxislayer-above"><path class="ytick ticks crisp" d="M79,0h-5" transform="translate(0,370)" style="stroke: rgb(68, 68, 68); stroke-opacity: 1; stroke-width: 1px;"/><path class="ytick ticks crisp" d="M79,0h-5" transform="translate(0,282.9)" style="stroke: rgb(68, 68, 68); stroke-opacity: 1; stroke-width: 1px;"/><path class="ytick ticks crisp" d="M79,0h-5" transform="translate(0,195.81)" style="stroke: rgb(68, 68, 68); stroke-opacity: 1; stroke-width: 1px;"/><path class="ytick ticks crisp" d="M79,0h-5" transform="translate(0,108.71000000000001)" style="stroke: rgb(68, 68, 68); stroke-opacity: 1; stroke-width: 1px;"/><g class="ytick"><text text-anchor="end" x="71.6" y="4.199999999999999" transform="translate(0,370)" style="font-family: 'Open Sans', verdana, arial, sans-serif; font-size: 12px; fill: rgb(68, 68, 68); fill-opacity: 1; white-space: pre; opacity: 1;">0</text></g><g class="ytick"><text text-anchor="end" x="71.6" y="4.199999999999999" style="font-family: 'Open Sans', verdana, arial, sans-serif; font-size: 12px; fill: rgb(68, 68, 68); fill-opacity: 1; white-space: pre; opacity: 1;" transform="translate(0,282.9)">0.005</text></g><g class="ytick"><text text-anchor="end" x="71.6" y="4.199999999999999" style="font-family: 'Open Sans', verdana, arial, sans-serif; font-size: 12px; fill: rgb(68, 68, 68); fill-opacity: 1; white-space: pre; opacity: 1;" transform="translate(0,195.81)">0.01</text></g><g class="ytick"><text text-anchor="end" x="71.6" y="4.199999999999999" style="font-family: 'Open Sans', verdana, arial, sans-serif; font-size: 12px; fill: rgb(68, 68, 68); fill-opacity: 1; white-space: pre; opacity: 1;" transform="translate(0,108.71000000000001)">0.015</text></g></g><g class="overaxes-above"/></g></g><g class="polarlayer"/><g class="smithlayer"/><g class="ternarylayer"/><g class="geolayer"/><g class="funnelarealayer"/><g class="pielayer"/><g class="iciclelayer"/><g class="treemaplayer"/><g class="sunburstlayer"/><g class="glimages"/><defs id="topdefs-7d8371"><g class="clips"/><clipPath id="legend7d8371"><rect width="137" height="67" x="0" y="0"/></clipPath></defs><g class="layer-above"><g class="imagelayer"/><g class="shapelayer"/></g><g class="infolayer"><g class="legend" pointer-events="all" transform="translate(299.0678983833719,128)"><rect class="bg" shape-rendering="crispEdges" width="137" height="67" x="0" y="0" style="stroke: rgb(68, 68, 68); stroke-opacity: 1; fill: rgb(255, 255, 255); fill-opacity: 1; stroke-width: 0px;"/><g class="scrollbox" transform="" clip-path="url(#legend7d8371)"><g class="groups"><g class="traces" transform="translate(0,14.5)" style="opacity: 1;"><text class="legendtext" text-anchor="start" x="40" y="4.680000000000001" style="font-family: 'Open Sans', verdana, arial, sans-serif; font-size: 12px; fill: rgb(68, 68, 68); fill-opacity: 1; white-space: pre;">LSTM</text><g class="layers" style="opacity: 1;"><g class="legendfill"/><g class="legendlines"><path class="js-line" d="M5,0h30" style="fill: none; stroke: rgb(156, 39, 176); stroke-opacity: 1; stroke-width: 2px;"/></g><g class="legendsymbols"><g class="legendpoints"/></g></g><rect class="legendtoggle" x="0" y="-9.5" width="131.328125" height="19" style="fill: rgb(0, 0, 0); fill-opacity: 0;"/></g><g class="traces" transform="translate(0,33.5)" style="opacity: 1;"><text class="legendtext" text-anchor="start" x="40" y="4.680000000000001" style="font-family: 'Open Sans', verdana, arial, sans-serif; font-size: 12px; fill: rgb(68, 68, 68); fill-opacity: 1; white-space: pre;">EncTransformer</text><g class="layers" style="opacity: 1;"><g class="legendfill"/><g class="legendlines"><path class="js-line" d="M5,0h30" style="fill: none; stroke: rgb(33, 150, 243); stroke-opacity: 1; stroke-width: 2px;"/></g><g class="legendsymbols"><g class="legendpoints"/></g></g><rect class="legendtoggle" x="0" y="-9.5" width="131.328125" height="19" style="fill: rgb(0, 0, 0); fill-opacity: 0;"/></g><g class="traces" transform="translate(0,52.5)" style="opacity: 1;"><text class="legendtext" text-anchor="start" x="40" y="4.680000000000001" style="font-family: 'Open Sans', verdana, arial, sans-serif; font-size: 12px; fill: rgb(68, 68, 68); fill-opacity: 1; white-space: pre;">ConvLSTM</text><g class="layers" style="opacity: 1;"><g class="legendfill"/><g class="legendlines"><path class="js-line" d="M5,0h30" style="fill: none; stroke: rgb(0, 150, 136); stroke-opacity: 1; stroke-width: 2px;"/></g><g class="legendsymbols"><g class="legendpoints"/></g></g><rect class="legendtoggle" x="0" y="-9.5" width="131.328125" height="19" style="fill: rgb(0, 0, 0); fill-opacity: 0;"/></g></g></g><rect class="scrollbar" rx="20" ry="3" width="0" height="0" x="0" y="0" style="fill: rgb(128, 139, 164); fill-opacity: 1;"/></g><g class="g-gtitle"><text class="gtitle" x="350" y="50" text-anchor="middle" dy="0em" style="font-family: 'Open Sans', verdana, arial, sans-serif; font-size: 17px; fill: rgb(68, 68, 68); opacity: 1; font-weight: normal; white-space: pre;">Train loss vs Epoch</text></g><g class="g-xtitle"><text class="xtitle" x="350" y="422" text-anchor="middle" style="font-family: 'Open Sans', verdana, arial, sans-serif; font-size: 14px; fill: rgb(68, 68, 68); opacity: 1; font-weight: normal; white-space: pre;">Epoch</text></g><g class="g-ytitle" transform="translate(-0.791015625,0)"><text class="ytitle" transform="rotate(-90,42,235)" x="42" y="235" text-anchor="middle" style="font-family: 'Open Sans', verdana, arial, sans-serif; font-size: 14px; fill: rgb(68, 68, 68); opacity: 1; font-weight: normal; white-space: pre;">Train loss</text></g></g></svg>