<svg class="main-svg" xmlns="http://www.w3.org/2000/svg" xmlns:xlink="http://www.w3.org/1999/xlink" width="700" height="450" style="" viewBox="0 0 700 450"><rect x="0" y="0" width="700" height="450" style="fill: rgb(255, 255, 255); fill-opacity: 1;"/><defs id="defs-966e7e"><g class="clips"><clipPath id="clip966e7exyplot" class="plotclip"><rect width="540" height="270"/></clipPath><clipPath class="axesclip" id="clip966e7ex"><rect x="80" y="0" width="540" height="450"/></clipPath><clipPath class="axesclip" id="clip966e7ey"><rect x="0" y="100" width="700" height="270"/></clipPath><clipPath class="axesclip" id="clip966e7exy"><rect x="80" y="100" width="540" height="270"/></clipPath></g><g class="gradients"/><g class="patterns"/></defs><g class="bglayer"/><g class="layer-below"><g class="imagelayer"/><g class="shapelayer"/></g><g class="cartesianlayer"><g class="subplot xy"><g class="layer-subplot"><g class="shapelayer"/><g class="imagelayer"/></g><g class="minor-gridlayer"><g class="x"/><g class="y"/></g><g class="gridlayer"><g class="x"><path class="xgrid crisp" transform="translate(188.11,0)" d="M0,100v270" style="stroke: rgb(238, 238, 238); stroke-opacity: 1; stroke-width: 1px;"/><path class="xgrid crisp" transform="translate(296.22,0)" d="M0,100v270" style="stroke: rgb(238, 238, 238); stroke-opacity: 1; stroke-width: 1px;"/><path class="xgrid crisp" transform="translate(404.32,0)" d="M0,100v270" style="stroke: rgb(238, 238, 238); stroke-opacity: 1; stroke-width: 1px;"/><path class="xgrid crisp" transform="translate(512.4300000000001,0)" d="M0,100v270" style="stroke: rgb(238, 238, 238); stroke-opacity: 1; stroke-width: 1px;"/></g><g class="y"><path class="ygrid crisp" transform="translate(0,285.63)" d="M80,0h540" style="stroke: rgb(238, 238, 238); stroke-opacity: 1; stroke-width: 1px;"/><path class="ygrid crisp" transform="translate(0,201.25)" d="M80,0h540" style="stroke: rgb(238, 238, 238); stroke-opacity: 1; stroke-width: 1px;"/><path class="ygrid crisp" transform="translate(0,116.88)" d="M80,0h540" style="stroke: rgb(238, 238, 238); stroke-opacity: 1; stroke-width: 1px;"/></g></g><g class="zerolinelayer"/><path class="xlines-below"/><path class="ylines-below"/><g class="overlines-below"/><g class="xaxislayer-below"/><g class="yaxislayer-below"/><g class="overaxes-below"/><g class="plot" transform="translate(80,100)" clip-path="url(#clip966e7exyplot)"><g class="scatterlayer mlayer"><g class="trace scatter trace2dbf14" style="stroke-miterlimit: 2; opacity: 1;"><g class="fills"/><g class="errorbars"/><g class="lines"><path class="js-line" d="M0,-3898.57L4.32,-113.62L4.86,-42.58L6.49,0.75L7.03,6.85L10.27,32.99L10.81,36.44L15.14,57.66L15.68,58.86L18.38,68.38L18.92,70.19L22.7,81.18L23.24,82.48L29.19,95.55L29.73,95.92L33.51,105.66L34.05,106.6L34.59,106.77L35.14,107.78L37.3,113.3L37.84,113.79L40,117.13L40.54,119.24L42.16,121.17L42.7,123.47L43.24,123.81L43.78,125.8L45.41,127.94L45.95,129.06L48.65,134.61L49.19,135.27L55.14,145.92L55.68,148.08L56.22,148.34L56.76,149.77L65.41,166.8L65.95,168.57L69.19,174.55L69.73,176.2L76.76,189.06L77.3,189.22L79.46,193.28L80,193.8L81.62,195.98L82.16,195.45L82.7,196.57L83.24,195.33L83.78,197.58L84.32,196.1L84.86,197.94L85.41,196.79L85.95,199.45L86.49,198.26L87.03,199.16L87.57,196.39L88.65,200.31L89.19,200.61L89.73,201.31L90.27,199.46L91.35,201.62L91.89,202.6L92.43,202.18L92.97,202.97L94.05,203.11L94.59,199L95.14,203.06L95.68,202.63L96.22,203.38L96.76,203.99L97.3,202.11L97.84,204.83L98.38,204.26L98.92,204.66L99.46,203.99L100,204.62L100.54,201.72L101.08,207.55L102.16,208.44L102.7,208.01L104.32,208.75L104.86,209.09L111.89,209.99L112.43,209.47L113.51,210.16L114.05,209.97L115.68,212.16L116.22,211.77L118.38,212.09L118.92,212.86L121.08,212.96L121.62,212.68L122.7,213.01L123.24,213.39L124.86,213.31L125.41,213.65L126.49,213.33L127.03,213.45L130.27,213.58L130.81,213.49L131.35,213.18L131.89,213.8L136.76,213.64L137.3,213.67L137.84,213.33L138.38,214.05L143.24,213.48L143.78,213.68L145.41,213.98L145.95,214.16L147.57,213.83L148.11,213.95L152.43,213.81L152.97,214L156.76,213.63L157.3,213.74L159.46,213.52L160,213.37L161.08,213.75L161.62,213.5L167.57,214.03L168.11,213.72L172.43,213.71L172.97,214.26L174.05,214.04L174.59,214.01L176.22,213.9L176.76,214.07L177.84,213.82L178.38,213.76L182.7,213.66L183.24,214.38L184.32,213.44L184.86,214.24L187.03,213.65L187.57,213.51L188.65,214.01L189.19,213.87L190.81,213.33L191.35,213.91L192.97,213.3L193.51,213.78L197.3,213.79L197.84,213.79L200,213.33L200.54,213.94L201.62,213.8L202.16,213.42L205.41,214.2L205.95,213.63L208.11,213.77L208.65,213.76L214.59,213.91L215.14,214.3L215.68,213.42L216.22,213.77L216.76,214.22L220.54,213.57L221.08,213.96L224.32,213.73L224.86,214.06L229.73,213.78L230.27,213.91L231.89,213.83L232.43,213.55L233.51,214.06L234.05,213.52L234.59,214.1L235.14,213.5L237.84,214.24L238.38,213.41L241.08,213.61L241.62,213.6L242.16,214.22L242.7,213.74L243.24,213.8L246.49,213.42L247.03,213.71L248.11,213.81L248.65,213.53L250.27,213.79L250.81,213.81L251.89,213.85L252.43,213.91L255.14,213.51L255.68,213.39L256.76,213.79L257.3,213.66L258.92,213.83L259.46,213.78L262.7,213.46L263.24,213.97L264.32,213.9L264.86,213.75L267.03,213.57L267.57,213.49L269.19,213.67L269.73,213.57L271.35,214.01L271.89,213.83L275.68,213.65L276.22,213.99L277.84,213.37L278.38,213.65L281.62,214.02L282.16,213.29L283.78,213.83L284.32,213.84L285.41,213.67L285.95,213.49L288.11,213.58L288.65,213.55L290.81,213.75L291.35,213.43L292.43,214.16L292.97,213.8L294.59,213.36L295.14,214.1L295.68,213.44L296.22,214.12L298.38,213.82L298.92,214.03L301.62,213.93L302.16,214.09L305.95,213.73L306.49,213.78L308.11,213.43L308.65,213.97L309.73,213.63L310.27,214.27L311.35,213.91L311.89,213.58L314.05,213.56L314.59,213.61L339.46,213.89L340,213.19L341.08,213.73L341.62,213.91L343.78,213.96L344.32,213.61L344.86,213.35L345.41,214.27L346.49,213.57L347.03,214.01L349.19,213.73L349.73,213.63L350.81,213.65L351.35,213.73L352.97,214.01L353.51,213.72L358.92,213.96L359.46,213.42L360.54,214.07L361.08,213.75L363.78,213.88L364.32,213.69L367.03,214.07L367.57,213.53L373.51,213.86L374.05,213.65L375.68,213.39L376.22,213.71L377.3,213.59L377.84,213.68L378.38,213.24L378.92,214.04L381.62,213.48L382.16,213.75L384.32,213.93L384.86,214.02L386.49,213.23L387.03,214.2L388.11,213.7L388.65,214.14L389.73,213.2L390.27,213.76L392.43,213.46L392.97,213.96L399.46,214.01L400,213.13L401.08,213.72L401.62,213.57L404.32,213.69L404.86,213.31L405.95,213.79L406.49,213.51L409.73,213.94L410.27,213.45L411.89,213.58L412.43,213.51L413.51,213.63L414.05,213.75L415.14,213.69L415.68,213.81L418.38,214.23L418.92,213.53L420,213.6L420.54,213.78L421.62,213.86L422.16,213.8L423.78,213.7L424.32,213.65L430.81,214.14L431.35,213.32L433.51,213.85L434.05,213.7L435.14,213.72L435.68,213.75L442.16,213.75L442.7,214.11L445.95,213.73L446.49,214.02L450.81,213.91L451.35,214.07L452.43,213.86L452.97,213.88L456.76,213.78L457.3,213.44L458.38,213.9L458.92,213.38L461.08,214.01L461.62,213.63L463.24,214.13L463.78,213.79L465.95,213.7L466.49,214.26L467.57,213.54L468.11,213.64L471.35,213.79L471.89,213.4L472.97,213.32L473.51,214.31L474.59,213.37L475.14,213.92L478.38,213.41L478.92,213.93L479.46,213.29L480,213.76L480.54,214.05L482.7,213.51L483.24,213.76L484.86,213.76L485.41,213.72L488.65,213.54L489.19,213.6L490.27,213.67L490.81,213.93L493.51,213.78L494.05,213.99L495.68,213.46L496.22,213.55L497.84,214.04L498.38,213.52L501.62,213.79L502.16,213.76L504.32,213.65L504.86,214.04L510.27,213.75L510.81,214.09L511.35,213.46L511.89,213.95L512.43,214.23L512.97,213.64L513.51,214.15L514.05,213.8L515.68,213.63L516.22,214.02L517.84,213.69L518.38,213.88L526.49,213.6L527.03,213.98L528.65,213.61L529.19,213.73L530.81,214.31L531.35,213.32L532.97,213.71L533.51,214.23L535.14,213.86L535.68,213.9L538.38,213.23L538.92,214.13L540,213.92" style="vector-effect: none; fill: none; stroke: rgb(156, 39, 176); stroke-opacity: 1; stroke-width: 2px; opacity: 1;"/></g><g class="points"/><g class="text"/></g><g class="trace scatter trace7a874f" style="stroke-miterlimit: 2; opacity: 1;"><g class="fills"/><g class="errorbars"/><g class="lines"><path class="js-line" d="M0,-3842.13L3.78,-3953.75L15.14,-1375.24L15.68,-1185.76L21.62,-104.8L22.16,-76.11L24.86,28.5L25.41,44.39L28.11,102.68L28.65,108.63L31.35,145.8L31.89,144.93L35.68,181.12L36.22,175.42L38.38,193.57L38.92,197L41.08,205.09L41.62,206.34L44.32,212.41L44.86,211.49L45.95,214.26L46.49,210.49L47.57,214.45L48.11,213.45L48.65,212.55L49.19,215.82L53.51,224.68L54.05,225.37L54.59,225.26L55.14,225.96L55.68,226.63L56.22,225.95L57.84,228.1L58.38,227.5L61.08,231.15L61.62,231.52L63.24,232.91L63.78,233.72L64.86,233L65.41,234.81L67.03,234.28L67.57,235.13L71.35,237.6L71.89,237.78L74.59,238.48L75.14,237.45L75.68,235L76.22,236.84L77.84,239.9L78.38,239.95L80.54,241.61L81.08,241.05L82.16,240.62L82.7,241.07L85.95,243.6L86.49,244L87.57,244.07L88.11,243.97L89.73,244.47L90.27,244.69L91.89,244.54L92.43,244.79L98.92,245.54L99.46,245.23L100,246.15L100.54,245.64L101.08,245.79L101.62,245.48L102.16,246.46L103.24,245.93L103.78,246.06L105.95,246.66L106.49,246.21L107.57,246.18L108.11,246.06L109.19,246.98L109.73,246.55L111.35,247.17L111.89,246.46L113.51,247.37L114.05,247.15L116.76,247.51L117.3,247.24L120,248.23L120.54,247.48L121.62,247.69L122.16,247.44L123.78,248L124.32,248.29L128.11,248.7L128.65,248.75L129.73,248.61L130.27,248.93L137.84,248.79L138.38,248.86L143.24,248.87L143.78,248.64L145.41,248.9L145.95,248.62L147.03,248.7L147.57,248.81L148.65,248.92L149.19,248.76L151.89,249L152.43,248.77L154.59,249.12L155.14,248.86L157.3,249.31L157.84,248.8L160,248.54L160.54,249.17L162.7,248.42L163.24,249.36L164.86,248.89L165.41,249.16L167.03,248.85L167.57,248.51L169.19,249.04L169.73,248.54L170.27,249.24L170.81,248.52L172.43,248.7L172.97,248.77L174.05,248.87L174.59,248.59L183.24,249.22L183.78,248.65L185.95,249.13L186.49,248.77L187.57,248.49L188.11,248.57L189.19,248.91L189.73,249.06L191.35,248.83L191.89,249.08L192.97,249.16L193.51,248.93L195.68,248.97L196.22,248.69L211.35,248.67L211.89,249.12L217.3,248.98L217.84,249.08L218.92,248.44L219.46,249.19L221.08,248.95L221.62,248.87L224.32,248.49L224.86,249L233.51,248.85L234.05,249.18L238.38,248.88L238.92,249.2L241.62,248.67L242.16,249.18L247.03,248.71L247.57,249.15L249.73,248.74L250.27,249.02L252.97,248.94L253.51,248.68L255.14,249.18L255.68,249.59L258.38,248.81L258.92,248.94L260,248.6L260.54,248.54L261.62,248.78L262.16,248.94L262.7,249.15L263.24,248.55L264.86,249L265.41,248.81L268.65,249.01L269.19,248.24L270.81,248.88L271.35,248.74L272.97,249.28L273.51,248.63L277.84,249.2L278.38,248.61L280,249.09L280.54,248.9L283.78,248.75L284.32,248.42L285.41,248.88L285.95,248.95L288.65,249.09L289.19,249.12L290.27,248.49L290.81,249.12L292.97,248.59L293.51,249.06L296.22,248.94L296.76,249.03L307.57,249.02L308.11,248.35L309.73,248.85L310.27,248.85L315.14,249.07L315.68,248.69L317.3,249.23L317.84,248.79L321.08,248.96L321.62,249.09L323.78,249.12L324.32,248.57L325.41,249.1L325.95,248.88L326.49,249.12L327.03,248.27L328.65,248.94L329.19,249.04L335.14,248.91L335.68,249.48L337.3,249.18L337.84,249.07L338.92,248.82L339.46,249.5L340,248.35L340.54,248.69L341.08,248.88L343.24,249.09L343.78,248.39L345.95,249.02L346.49,248.62L350.27,248.78L350.81,248.81L351.35,248.31L351.89,248.9L354.59,248.85L355.14,248.92L355.68,249.12L356.22,248.33L357.3,249.02L357.84,248.72L359.46,248.91L360,248.61L361.62,249.07L362.16,248.72L362.7,249.11L363.24,248.54L367.57,249.19L368.11,249.08L369.19,248.83L369.73,248.5L370.81,248.89L371.35,248.94L374.05,249.05L374.59,249.14L375.68,248.68L376.22,248.95L377.3,249.12L377.84,249.02L385.41,248.74L385.95,249.15L387.03,249.05L387.57,248.6L388.65,249.01L389.19,248.77L392.43,248.77L392.97,249.45L395.68,248.74L396.22,249.18L397.3,248.76L397.84,248.64L398.92,248.86L399.46,248.35L401.08,248.99L401.62,248.66L402.7,249.2L403.24,249.44L404.86,248.67L405.41,249.23L407.03,248.82L407.57,248.87L410.27,248.69L410.81,248.43L411.89,249.17L412.43,248.94L413.51,248.87L414.05,248.39L416.22,249.05L416.76,248.93L422.16,249.06L422.7,248.89L428.11,248.87L428.65,248.81L430.81,249L431.35,248.9L437.3,249.12L437.84,249.27L438.92,248.72L439.46,248.95L440.54,248.42L441.08,249.21L445.41,248.43L445.95,249.04L447.03,249.2L447.57,248.81L449.19,249.05L449.73,248.7L456.22,248.61L456.76,249.05L458.92,248.99L459.46,249.3L461.08,248.74L461.62,248.93L464.32,248.69L464.86,249.24L467.57,248.77L468.11,249.16L469.19,248.91L469.73,249.07L471.89,248.87L472.43,248.61L480.54,248.91L481.08,248.65L484.86,248.86L485.41,248.54L487.57,248.97L488.11,248.8L489.73,248.99L490.27,249.2L491.89,249.19L492.43,249.22L494.59,248.74L495.14,249.08L496.76,248.6L497.3,248.97L501.08,248.87L501.62,248.94L503.24,248.86L503.78,249.02L504.32,249.17L504.86,248.52L505.95,249.12L506.49,248.95L512.43,249.07L512.97,249.21L514.59,249.06L515.14,248.89L516.22,249.26L516.76,248.51L517.84,249.17L518.38,248.97L520.54,249.07L521.08,248.81L522.7,249.04L523.24,248.64L525.95,248.7L526.49,248.82L531.89,248.92L532.43,248.86L536.22,248.76L536.76,248.86L540,248.91" style="vector-effect: none; fill: none; stroke: rgb(33, 150, 243); stroke-opacity: 1; stroke-width: 2px; opacity: 1;"/></g><g class="points"/><g class="text"/></g><g class="trace scatter trace8911cb" style="stroke-miterlimit: 2; opacity: 1;"><g class="fills"/><g class="errorbars"/><g class="lines"><path class="js-line" d="M0,-5400L4.501857633458456,-5400L4.86,-195.75L5.41,-83.06L7.03,44.85L7.57,62.11L9.73,104.11L10.27,110.79L12.97,132.45L13.51,135.43L17.3,151.36L17.84,153.23L22.7,167.3L23.24,168.56L28.11,177.88L28.65,178.71L34.05,185.63L34.59,186.21L42.7,193.41L43.24,193.81L53.51,200.54L54.05,200.86L70.27,209.33L70.81,209.59L97.84,221.33L98.38,221.55L124.32,230.85L124.86,231.01L137.84,234.4L138.38,233.85L138.92,232.74L139.46,234.81L140.54,231.93L141.08,225.73L141.62,225.74L142.16,220.12L142.7,217.47L143.24,231.25L144.32,233.65L144.86,233.85L145.41,234.03L145.95,233.21L149.73,235.33L150.27,235.44L162.7,236.56L163.24,236.6L200,238.58L200.54,238.6L318.38,242.28L318.92,242.29L369.73,243.43L370.27,243.44L540,246.3" style="vector-effect: none; fill: none; stroke: rgb(0, 150, 136); stroke-opacity: 1; stroke-width: 2px; opacity: 1;"/></g><g class="points"/><g class="text"/></g></g></g><g class="overplot"/><path class="xlines-above crisp" d="M79,370.5H620" style="fill: none; stroke-width: 1px; stroke: rgb(68, 68, 68); stroke-opacity: 1;"/><path class="ylines-above crisp" d="M79.5,100V370" style="fill: none; stroke-width: 1px; stroke: rgb(68, 68, 68); stroke-opacity: 1;"/><g class="overlines-above"/><g class="xaxislayer-above"><path class="xtick ticks crisp" d="M0,371v5" transform="translate(80,0)" style="stroke: rgb(68, 68, 68); stroke-opacity: 1; stroke-width: 1px;"/><path class="xtick ticks crisp" d="M0,371v5" transform="translate(188.11,0)" style="stroke: rgb(68, 68, 68); stroke-opacity: 1; stroke-width: 1px;"/><path class="xtick ticks crisp" d="M0,371v5" transform="translate(296.22,0)" style="stroke: rgb(68, 68, 68); stroke-opacity: 1; stroke-width: 1px;"/><path class="xtick ticks crisp" d="M0,371v5" transform="translate(404.32,0)" style="stroke: rgb(68, 68, 68); stroke-opacity: 1; stroke-width: 1px;"/><path class="xtick ticks crisp" d="M0,371v5" transform="translate(512.4300000000001,0)" style="stroke: rgb(68, 68, 68); stroke-opacity: 1; stroke-width: 1px;"/><g class="xtick"><text text-anchor="middle" x="0" y="390.4" transform="translate(80,0)" style="font-family: 'Open Sans', verdana, arial, sans-serif; font-size: 12px; fill: rgb(68, 68, 68); fill-opacity: 1; white-space: pre; opacity: 1;">0</text></g><g class="xtick"><text text-anchor="middle" x="0" y="390.4" style="font-family: 'Open Sans', verdana, arial, sans-serif; font-size: 12px; fill: rgb(68, 68, 68); fill-opacity: 1; white-space: pre; opacity: 1;" transform="translate(188.11,0)">200</text></g><g class="xtick"><text text-anchor="middle" x="0" y="390.4" style="font-family: 'Open Sans', verdana, arial, sans-serif; font-size: 12px; fill: rgb(68, 68, 68); fill-opacity: 1; white-space: pre; opacity: 1;" transform="translate(296.22,0)">400</text></g><g class="xtick"><text text-anchor="middle" x="0" y="390.4" style="font-family: 'Open Sans', verdana, arial, sans-serif; font-size: 12px; fill: rgb(68, 68, 68); fill-opacity: 1; white-space: pre; opacity: 1;" transform="translate(404.32,0)">600</text></g><g class="xtick"><text text-anchor="middle" x="0" y="390.4" style="font-family: 'Open Sans', verdana, arial, sans-serif; font-size: 12px; fill: rgb(68, 68, 68); fill-opacity: 1; white-space: pre; opacity: 1;" transform="translate(512.4300000000001,0)">800</text></g></g><g class="yaxislayer-above"><path class="ytick ticks crisp" d="M79,0h-5" transform="translate(0,370)" style="stroke: rgb(68, 68, 68); stroke-opacity: 1; stroke-width: 1px;"/><path class="ytick ticks crisp" d="M79,0h-5" transform="translate(0,285.63)" style="stroke: rgb(68, 68, 68); stroke-opacity: 1; stroke-width: 1px;"/><path class="ytick ticks crisp" d="M79,0h-5" transform="translate(0,201.25)" style="stroke: rgb(68, 68, 68); stroke-opacity: 1; stroke-width: 1px;"/><path class="ytick ticks crisp" d="M79,0h-5" transform="translate(0,116.88)" style="stroke: rgb(68, 68, 68); stroke-opacity: 1; stroke-width: 1px;"/><g class="ytick"><text text-anchor="end" x="71.6" y="4.199999999999999" transform="translate(0,370)" style="font-family: 'Open Sans', verdana, arial, sans-serif; font-size: 12px; fill: rgb(68, 68, 68); fill-opacity: 1; white-space: pre; opacity: 1;">0</text></g><g class="ytick"><text text-anchor="end" x="71.6" y="4.199999999999999" style="font-family: 'Open Sans', verdana, arial, sans-serif; font-size: 12px; fill: rgb(68, 68, 68); fill-opacity: 1; white-space: pre; opacity: 1;" transform="translate(0,285.63)">0.005</text></g><g class="ytick"><text text-anchor="end" x="71.6" y="4.199999999999999" style="font-family: 'Open Sans', verdana, arial, sans-serif; font-size: 12px; fill: rgb(68, 68, 68); fill-opacity: 1; white-space: pre; opacity: 1;" transform="translate(0,201.25)">0.01</text></g><g class="ytick"><text text-anchor="end" x="71.6" y="4.199999999999999" style="font-family: 'Open Sans', verdana, arial, sans-serif; font-size: 12px; fill: rgb(68, 68, 68); fill-opacity: 1; white-space: pre; opacity: 1;" transform="translate(0,116.88)">0.015</text></g></g><g class="overaxes-above"/></g></g><g class="polarlayer"/><g class="smithlayer"/><g class="ternarylayer"/><g class="geolayer"/><g class="funnelarealayer"/><g class="pielayer"/><g class="iciclelayer"/><g class="treemaplayer"/><g class="sunburstlayer"/><g class="glimages"/><defs id="topdefs-966e7e"><g class="clips"/><clipPath id="legend966e7e"><rect width="137" height="67" x="0" y="0"/></clipPath></defs><g class="layer-above"><g class="imagelayer"/><g class="shapelayer"/></g><g class="infolayer"><g class="legend" pointer-events="all" transform="translate(301.5792207792208,142.99999999999994)"><rect class="bg" shape-rendering="crispEdges" style="stroke: rgb(68, 68, 68); stroke-opacity: 1; fill: rgb(255, 255, 255); fill-opacity: 1; stroke-width: 0px;" width="137" height="67" x="0" y="0"/><g class="scrollbox" transform="" clip-path="url(#legend966e7e)"><g class="groups"><g class="traces" transform="translate(0,14.5)" style="opacity: 1;"><text class="legendtext" text-anchor="start" x="40" y="4.680000000000001" style="font-family: 'Open Sans', verdana, arial, sans-serif; font-size: 12px; fill: rgb(68, 68, 68); fill-opacity: 1; white-space: pre;">LSTM</text><g class="layers" style="opacity: 1;"><g class="legendfill"/><g class="legendlines"><path class="js-line" d="M5,0h30" style="fill: none; stroke: rgb(156, 39, 176); stroke-opacity: 1; stroke-width: 2px;"/></g><g class="legendsymbols"><g class="legendpoints"/></g></g><rect class="legendtoggle" x="0" y="-9.5" width="131.328125" height="19" style="fill: rgb(0, 0, 0); fill-opacity: 0;"/></g><g class="traces" transform="translate(0,33.5)" style="opacity: 1;"><text class="legendtext" text-anchor="start" x="40" y="4.680000000000001" style="font-family: 'Open Sans', verdana, arial, sans-serif; font-size: 12px; fill: rgb(68, 68, 68); fill-opacity: 1; white-space: pre;">ConvLSTM</text><g class="layers" style="opacity: 1;"><g class="legendfill"/><g class="legendlines"><path class="js-line" d="M5,0h30" style="fill: none; stroke: rgb(33, 150, 243); stroke-opacity: 1; stroke-width: 2px;"/></g><g class="legendsymbols"><g class="legendpoints"/></g></g><rect class="legendtoggle" x="0" y="-9.5" width="131.328125" height="19" style="fill: rgb(0, 0, 0); fill-opacity: 0;"/></g><g class="traces" transform="translate(0,52.5)" style="opacity: 1;"><text class="legendtext" text-anchor="start" x="40" y="4.680000000000001" style="font-family: 'Open Sans', verdana, arial, sans-serif; font-size: 12px; fill: rgb(68, 68, 68); fill-opacity: 1; white-space: pre;">EncTransformer</text><g class="layers" style="opacity: 1;"><g class="legendfill"/><g class="legendlines"><path class="js-line" d="M5,0h30" style="fill: none; stroke: rgb(0, 150, 136); stroke-opacity: 1; stroke-width: 2px;"/></g><g class="legendsymbols"><g class="legendpoints"/></g></g><rect class="legendtoggle" x="0" y="-9.5" width="131.328125" height="19" style="fill: rgb(0, 0, 0); fill-opacity: 0;"/></g></g></g><rect class="scrollbar" rx="20" ry="3" width="0" height="0" style="fill: rgb(128, 139, 164); fill-opacity: 1;" x="0" y="0"/></g><g class="g-gtitle"><text class="gtitle" x="350" y="50" text-anchor="middle" dy="0em" style="font-family: 'Open Sans', verdana, arial, sans-serif; font-size: 17px; fill: rgb(68, 68, 68); opacity: 1; font-weight: normal; white-space: pre;">Training loss vs Epoch</text></g><g class="g-xtitle"><text class="xtitle" x="350" y="422" text-anchor="middle" style="font-family: 'Open Sans', verdana, arial, sans-serif; font-size: 14px; fill: rgb(68, 68, 68); opacity: 1; font-weight: normal; white-space: pre;">Epoch</text></g><g class="g-ytitle" transform="translate(-0.791015625,0)"><text class="ytitle" transform="rotate(-90,42,235)" x="42" y="235" text-anchor="middle" style="font-family: 'Open Sans', verdana, arial, sans-serif; font-size: 14px; fill: rgb(68, 68, 68); opacity: 1; font-weight: normal; white-space: pre;">Train Loss</text></g></g></svg>